<svg width="29" height="26" viewBox="0 0 29 26" fill="none" xmlns="http://www.w3.org/2000/svg">
<path d="M6.95995 13.9375V13.942C6.93466 14.0373 6.89082 14.1266 6.83093 14.205C6.77104 14.2833 6.69628 14.3491 6.61092 14.3985C6.52556 14.448 6.43128 14.4801 6.33347 14.4932C6.23566 14.5062 6.13623 14.4999 6.04088 14.4745C5.39363 14.3035 5.50776 13.558 5.50776 13.558L5.53479 13.465C5.53479 13.465 5.57384 13.339 5.60537 13.2475C5.99075 12.1682 6.55808 11.1627 7.28283 10.2745C8.6299 8.6335 10.896 7 14.4927 7C18.0894 7 20.3556 8.6335 21.7041 10.2745C22.4289 11.1627 22.9962 12.1682 23.3816 13.2475C23.4139 13.3402 23.444 13.4338 23.4717 13.528L23.4762 13.5475V13.5535L23.4777 13.5565C23.5253 13.7474 23.496 13.9493 23.3959 14.1188C23.2959 14.2883 23.1332 14.4117 22.9429 14.4625C22.7526 14.5132 22.5499 14.4873 22.3786 14.3902C22.2073 14.2931 22.081 14.1327 22.027 13.9435L22.0255 13.9375L22.0135 13.9L21.9609 13.7365C21.6336 12.8253 21.1537 11.9762 20.5418 11.2255C19.4275 9.868 17.5638 8.5 14.4927 8.5C11.4217 8.5 9.55948 9.868 8.44368 11.2255C7.83172 11.9762 7.35184 12.8253 7.02453 13.7365L6.97197 13.9L6.95995 13.9375ZM10.7384 15.25C10.7384 14.2554 11.1339 13.3016 11.838 12.5983C12.5421 11.8951 13.497 11.5 14.4927 11.5C15.4885 11.5 16.4434 11.8951 17.1475 12.5983C17.8516 13.3016 18.2471 14.2554 18.2471 15.25C18.2471 16.2446 17.8516 17.1984 17.1475 17.9017C16.4434 18.6049 15.4885 19 14.4927 19C13.497 19 12.5421 18.6049 11.838 17.9017C11.1339 17.1984 10.7384 16.2446 10.7384 15.25Z" fill="#F2F2F7"/>
</svg>
