<svg width="28" height="26" viewBox="0 0 28 26" fill="none" xmlns="http://www.w3.org/2000/svg">
<path d="M17.3789 5.8418H21.1582C22.1413 5.8418 22.9844 5.93294 23.6875 6.11523C24.3906 6.29753 25.0286 6.63932 25.6016 7.14062C27.0924 8.41667 27.8379 10.3568 27.8379 12.9609C27.8379 13.8203 27.763 14.6048 27.6133 15.3145C27.4635 16.0241 27.2324 16.6654 26.9199 17.2383C26.6074 17.8047 26.207 18.3125 25.7188 18.7617C25.3346 19.1068 24.9147 19.3835 24.459 19.5918C24.0033 19.8001 23.5117 19.9466 22.9844 20.0312C22.4635 20.1159 21.8743 20.1582 21.2168 20.1582H17.4375C16.9102 20.1582 16.513 20.0801 16.2461 19.9238C15.9792 19.7611 15.8034 19.5365 15.7188 19.25C15.6406 18.957 15.6016 18.5794 15.6016 18.1172V7.61914C15.6016 6.99414 15.7415 6.54167 16.0215 6.26172C16.3014 5.98177 16.7539 5.8418 17.3789 5.8418ZM18.502 8.13672V17.8535H20.6992C21.181 17.8535 21.5586 17.8405 21.832 17.8145C22.1055 17.7884 22.3887 17.7233 22.6816 17.6191C22.9746 17.515 23.2285 17.3685 23.4434 17.1797C24.4134 16.3594 24.8984 14.9466 24.8984 12.9414C24.8984 11.5286 24.6836 10.4707 24.2539 9.76758C23.8307 9.06445 23.3066 8.61849 22.6816 8.42969C22.0566 8.23438 21.3014 8.13672 20.416 8.13672H18.502Z" fill="#F2F2F7"/>
<path d="M10.3477 18.5371L9.66406 16.7402H3.84375L3.16016 18.5762C2.89323 19.2923 2.66536 19.7773 2.47656 20.0312C2.28776 20.2786 1.97852 20.4023 1.54883 20.4023C1.18424 20.4023 0.861979 20.2689 0.582031 20.002C0.302083 19.735 0.162109 19.4323 0.162109 19.0938C0.162109 18.8984 0.194661 18.6966 0.259766 18.4883C0.32487 18.2799 0.432292 17.9902 0.582031 17.6191L4.24414 8.32227C4.34831 8.05534 4.47201 7.73633 4.61523 7.36523C4.76497 6.98763 4.92122 6.67513 5.08398 6.42773C5.25326 6.18034 5.47135 5.98177 5.73828 5.83203C6.01172 5.67578 6.34701 5.59766 6.74414 5.59766C7.14779 5.59766 7.48307 5.67578 7.75 5.83203C8.02344 5.98177 8.24154 6.17708 8.4043 6.41797C8.57357 6.65885 8.71354 6.91927 8.82422 7.19922C8.94141 7.47266 9.08789 7.84049 9.26367 8.30273L13.0039 17.541C13.2969 18.2441 13.4434 18.7552 13.4434 19.0742C13.4434 19.4062 13.3034 19.7122 13.0234 19.9922C12.75 20.2656 12.418 20.4023 12.0273 20.4023C11.7995 20.4023 11.6042 20.36 11.4414 20.2754C11.2786 20.1973 11.1419 20.0898 11.0312 19.9531C10.9206 19.8099 10.8001 19.5951 10.6699 19.3086C10.5462 19.0156 10.4388 18.7585 10.3477 18.5371ZM4.60547 14.5625H8.88281L6.72461 8.6543L4.60547 14.5625Z" fill="#F2F2F7"/>
</svg>
