<svg width="17" height="17" viewBox="0 0 17 17" fill="none" xmlns="http://www.w3.org/2000/svg">
<path d="M8.88462 11.2839L14.5265 5.36262C14.6207 5.26382 14.6732 5.13256 14.6732 4.99606C14.6732 4.85956 14.6207 4.7283 14.5265 4.6295L14.5201 4.62312C14.4745 4.57506 14.4195 4.53679 14.3586 4.51064C14.2977 4.48449 14.2321 4.471 14.1658 4.471C14.0995 4.471 14.0339 4.48449 13.973 4.51064C13.9121 4.53679 13.8571 4.57506 13.8114 4.62312L8.49894 10.1991L3.18856 4.62312C3.1429 4.57506 3.08794 4.53679 3.02703 4.51064C2.96611 4.48449 2.90051 4.471 2.83422 4.471C2.76793 4.471 2.70233 4.48449 2.64141 4.51064C2.58049 4.53679 2.52553 4.57506 2.47987 4.62312L2.4735 4.6295C2.37931 4.7283 2.32677 4.85956 2.32677 4.99606C2.32677 5.13256 2.37931 5.26382 2.4735 5.36262L8.11537 11.2839C8.16499 11.336 8.22466 11.3775 8.29078 11.4058C8.35689 11.4341 8.42807 11.4487 8.5 11.4487C8.57193 11.4487 8.64311 11.4341 8.70922 11.4058C8.77534 11.3775 8.83501 11.336 8.88462 11.2839Z" fill="#F2F2F7"/>
</svg>
