<svg width="28" height="28" viewBox="0 0 28 28" fill="none" xmlns="http://www.w3.org/2000/svg">
<path d="M9.41501 14.6333L19.1678 23.9258C19.3305 24.0809 19.5467 24.1675 19.7715 24.1675C19.9963 24.1675 20.2125 24.0809 20.3753 23.9258L20.3858 23.9153C20.4649 23.8401 20.528 23.7496 20.571 23.6493C20.6141 23.5489 20.6363 23.4409 20.6363 23.3317C20.6363 23.2225 20.6141 23.1145 20.571 23.0141C20.528 22.9138 20.4649 22.8233 20.3858 22.7481L11.2018 13.9981L20.3858 5.25156C20.4649 5.17636 20.528 5.08584 20.571 4.98551C20.6141 4.88517 20.6363 4.77713 20.6363 4.66794C20.6363 4.55875 20.6141 4.4507 20.571 4.35037C20.528 4.25004 20.4649 4.15952 20.3858 4.08431L20.3753 4.07381C20.2125 3.91868 19.9963 3.83215 19.7715 3.83215C19.5467 3.83215 19.3305 3.91868 19.1678 4.07381L9.41501 13.3663C9.32924 13.448 9.26096 13.5463 9.2143 13.6552C9.16764 13.7641 9.14359 13.8813 9.14359 13.9998C9.14359 14.1183 9.16764 14.2355 9.2143 14.3444C9.26096 14.4533 9.32924 14.5516 9.41501 14.6333Z" fill="#F2F2F7"/>
</svg>
