<svg width="13" height="13" viewBox="0 0 13 13" fill="none" xmlns="http://www.w3.org/2000/svg">
<path d="M8.62875 6.20587L4.10069 1.8915C4.02513 1.81948 3.92476 1.7793 3.82037 1.7793C3.71599 1.7793 3.61562 1.81948 3.54006 1.8915L3.53519 1.89637C3.49843 1.93129 3.46917 1.97332 3.44917 2.0199C3.42917 2.06648 3.41886 2.11665 3.41886 2.16734C3.41886 2.21804 3.42917 2.2682 3.44917 2.31479C3.46917 2.36137 3.49843 2.4034 3.53519 2.43831L7.79919 6.50081L3.53519 10.5617C3.49843 10.5966 3.46917 10.6386 3.44917 10.6852C3.42917 10.7318 3.41886 10.782 3.41886 10.8327C3.41886 10.8834 3.42917 10.9335 3.44917 10.9801C3.46917 11.0267 3.49843 11.0687 3.53519 11.1036L3.54006 11.1085C3.61561 11.1805 3.71599 11.2207 3.82037 11.2207C3.92476 11.2207 4.02513 11.1805 4.10069 11.1085L8.62875 6.79413C8.66857 6.75618 8.70027 6.71055 8.72194 6.65999C8.7436 6.60943 8.75477 6.555 8.75477 6.5C8.75477 6.445 8.7436 6.39057 8.72194 6.34001C8.70027 6.28945 8.66857 6.24382 8.62875 6.20587Z" fill="#1C1C1E"/>
</svg>
