<svg width="40" height="44" viewBox="0 0 40 44" fill="none" xmlns="http://www.w3.org/2000/svg">
<path fill-rule="evenodd" clip-rule="evenodd" d="M20 13C17.6131 13 15.3239 13.9482 13.636 15.636C11.9482 17.3239 11 19.6131 11 22C11 24.3869 11.9482 26.6761 13.636 28.364C15.3239 30.0518 17.6131 31 20 31H24.5C25.898 31 26.597 31 27.148 30.772C27.5121 30.6212 27.8429 30.4002 28.1216 30.1216C28.4002 29.8429 28.6212 29.5121 28.772 29.148C29 28.597 29 27.898 29 26.5V22C29 19.6131 28.0518 17.3239 26.364 15.636C24.6761 13.9482 22.3869 13 20 13ZM16 21C16 20.7348 16.1054 20.4804 16.2929 20.2929C16.4804 20.1054 16.7348 20 17 20H23C23.2652 20 23.5196 20.1054 23.7071 20.2929C23.8946 20.4804 24 20.7348 24 21C24 21.2652 23.8946 21.5196 23.7071 21.7071C23.5196 21.8946 23.2652 22 23 22H17C16.7348 22 16.4804 21.8946 16.2929 21.7071C16.1054 21.5196 16 21.2652 16 21ZM19 25C19 24.7348 19.1054 24.4804 19.2929 24.2929C19.4804 24.1054 19.7348 24 20 24H23C23.2652 24 23.5196 24.1054 23.7071 24.2929C23.8946 24.4804 24 24.7348 24 25C24 25.2652 23.8946 25.5196 23.7071 25.7071C23.5196 25.8946 23.2652 26 23 26H20C19.7348 26 19.4804 25.8946 19.2929 25.7071C19.1054 25.5196 19 25.2652 19 25Z" fill="#48494A"/>
</svg>
