<svg width="18" height="18" viewBox="0 0 18 18" fill="none" xmlns="http://www.w3.org/2000/svg">
<g opacity="0.8">
<path d="M1.45995 9.9375V9.942C1.43466 10.0373 1.39082 10.1266 1.33093 10.205C1.27104 10.2833 1.19628 10.3491 1.11092 10.3985C1.02556 10.448 0.93128 10.4801 0.833469 10.4932C0.735658 10.5062 0.636233 10.4999 0.54088 10.4745C-0.106375 10.3035 0.0077582 9.558 0.0077582 9.558L0.0347899 9.465C0.0347899 9.465 0.0738353 9.339 0.105372 9.2475C0.490753 8.16823 1.05808 7.16274 1.78283 6.2745C3.1299 4.6335 5.39604 3 8.99273 3C12.5894 3 14.8556 4.6335 16.2041 6.2745C16.9289 7.16274 17.4962 8.16823 17.8816 9.2475C17.9139 9.34025 17.944 9.43378 17.9717 9.528L17.9762 9.5475V9.5535L17.9777 9.5565C18.0253 9.7474 17.996 9.94935 17.8959 10.1188C17.7959 10.2883 17.6332 10.4117 17.4429 10.4625C17.2526 10.5132 17.0499 10.4873 16.8786 10.3902C16.7073 10.2931 16.581 10.1327 16.527 9.9435L16.5255 9.9375L16.5135 9.9L16.4609 9.7365C16.1336 8.82529 15.6537 7.97621 15.0418 7.2255C13.9275 5.868 12.0638 4.5 8.99273 4.5C5.92165 4.5 4.05948 5.868 2.94368 7.2255C2.33172 7.97621 1.85184 8.82529 1.52453 9.7365L1.47197 9.9L1.45995 9.9375ZM5.23836 11.25C5.23836 10.2554 5.63391 9.30161 6.33799 8.59835C7.04207 7.89509 7.99701 7.5 8.99273 7.5C9.98846 7.5 10.9434 7.89509 11.6475 8.59835C12.3516 9.30161 12.7471 10.2554 12.7471 11.25C12.7471 12.2446 12.3516 13.1984 11.6475 13.9017C10.9434 14.6049 9.98846 15 8.99273 15C7.99701 15 7.04207 14.6049 6.33799 13.9017C5.63391 13.1984 5.23836 12.2446 5.23836 11.25Z" fill="#F2F2F7"/>
</g>
</svg>
