<svg width="23" height="23" viewBox="0 0 23 23" fill="none" xmlns="http://www.w3.org/2000/svg">
<path d="M1.2236 6.3365C2.18083 4.43157 3.64875 2.83021 5.46342 1.71127C7.27809 0.592334 9.36808 -0.00014546 11.5 2.67874e-08C14.5992 2.67874e-08 17.2028 1.13965 19.1935 2.99575L15.8964 6.29395C14.7039 5.1543 13.1882 4.57355 11.5 4.57355C8.50425 4.57355 5.9685 6.59755 5.06575 9.315C4.83575 10.005 4.70465 10.741 4.70465 11.5C4.70465 12.259 4.83575 12.995 5.06575 13.685C5.96965 16.4036 8.50425 18.4265 11.5 18.4265C13.0467 18.4265 14.3635 18.0182 15.3939 17.3282C15.9913 16.9349 16.5026 16.4246 16.8972 15.828C17.2917 15.2315 17.5612 14.5611 17.6893 13.8575H11.5V9.4093H22.3307C22.4664 10.1614 22.54 10.9457 22.54 11.761C22.54 15.264 21.2865 18.2125 19.1107 20.2135C17.2086 21.9707 14.605 23 11.5 23C9.98963 23.0006 8.49394 22.7036 7.09843 22.1258C5.70291 21.5481 4.43492 20.7011 3.36692 19.6331C2.29893 18.5651 1.45187 17.2971 0.874155 15.9016C0.29644 14.5061 -0.000603591 13.0104 9.20821e-07 11.5C9.20821e-07 9.6439 0.443901 7.889 1.2236 6.3365Z" fill="#1C1C1E"/>
</svg>
