<svg width="26" height="26" viewBox="0 0 26 26" fill="none" xmlns="http://www.w3.org/2000/svg">
<path d="M23.089 13.7216L13.5106 23L3.93227 13.7216C3.30049 13.1203 2.80284 12.3976 2.47067 11.5989C2.1385 10.8003 1.979 9.943 2.00221 9.08109C2.02543 8.21918 2.23085 7.37131 2.60555 6.59087C2.98025 5.81043 3.51611 5.11432 4.17938 4.54638C4.84265 3.97844 5.61897 3.55098 6.45944 3.2909C7.29992 3.03083 8.18635 2.94378 9.06292 3.03524C9.93948 3.12669 10.7872 3.39467 11.5527 3.82231C12.3181 4.24994 12.9848 4.82796 13.5106 5.51996C14.0388 4.83298 14.7062 4.26001 15.4711 3.83692C16.2361 3.41382 17.0821 3.14971 17.9562 3.06112C18.8303 2.97252 19.7137 3.06134 20.5511 3.32202C21.3885 3.5827 22.1619 4.00963 22.8228 4.57609C23.4837 5.14255 24.018 5.83634 24.3922 6.61405C24.7664 7.39175 24.9724 8.23663 24.9974 9.0958C25.0224 9.95497 24.8658 10.8099 24.5374 11.6072C24.2091 12.4044 23.716 13.1268 23.089 13.7291" stroke="#F2F2F7" stroke-width="2" stroke-linecap="round" stroke-linejoin="round"/>
</svg>
