<svg width="40" height="44" viewBox="0 0 40 44" fill="none" xmlns="http://www.w3.org/2000/svg">
<g clip-path="url(#clip0_145_357)">
<path fill-rule="evenodd" clip-rule="evenodd" d="M10.5 27.9755V22.0851C10.5 21.4966 10.5 21.2022 10.5731 20.9283C10.6379 20.6856 10.745 20.4559 10.8889 20.2484C11.0513 20.0142 11.277 19.82 11.7294 19.4324L17.1312 14.8049C17.9698 14.0864 18.3892 13.7272 18.8615 13.5904C19.2779 13.4699 19.7218 13.4699 20.1383 13.5904C20.6109 13.7273 21.0309 14.0869 21.8708 14.8064L27.2709 19.4324C27.7232 19.82 27.949 20.0142 28.1114 20.2484C28.2553 20.4559 28.3616 20.6856 28.4264 20.9283C28.4995 21.2022 28.5 21.4966 28.5 22.0851V27.9794C28.5 29.2107 28.5 29.827 28.255 30.2978C28.0393 30.7123 27.6942 31.0489 27.2708 31.2601C26.79 31.5 26.1611 31.5 24.9035 31.5H22.5V27.5C22.5 25.8431 21.1569 24.5 19.5 24.5C17.8431 24.5 16.5 25.8431 16.5 27.5V31.5H14.0965C12.8389 31.5 12.2091 31.5 11.7283 31.2601C11.3049 31.0489 10.961 30.7123 10.7452 30.2978C10.5 29.8265 10.5 29.2092 10.5 27.9755Z" fill="#C7C7CC"/>
<path d="M10.5731 20.9283L11.5393 21.1862L11.5393 21.1862L10.5731 20.9283ZM10.8889 20.2484L11.7107 20.8182L11.7107 20.8182L10.8889 20.2484ZM11.7294 19.4324L11.0788 18.673H11.0788L11.7294 19.4324ZM17.1312 14.8049L16.4806 14.0455L16.4806 14.0455L17.1312 14.8049ZM18.8615 13.5904L19.1396 14.551L18.8615 13.5904ZM20.1383 13.5904L20.4164 12.6299L20.4164 12.6299L20.1383 13.5904ZM21.8708 14.8064L21.2203 15.5659L21.8708 14.8064ZM27.2709 19.4324L27.9214 18.673L27.9214 18.673L27.2709 19.4324ZM28.1114 20.2484L28.9332 19.6786V19.6786L28.1114 20.2484ZM28.4264 20.9283L29.3926 20.6704V20.6704L28.4264 20.9283ZM28.255 30.2978L29.1421 30.7594H29.1421L28.255 30.2978ZM27.2708 31.2601L27.7172 32.155L27.7172 32.155L27.2708 31.2601ZM22.5 31.5H21.5C21.5 32.0523 21.9477 32.5 22.5 32.5V31.5ZM16.5 31.5V32.5C17.0523 32.5 17.5 32.0523 17.5 31.5H16.5ZM11.7283 31.2601L11.2819 32.155L11.2819 32.155L11.7283 31.2601ZM10.7452 30.2978L9.85817 30.7594H9.85817L10.7452 30.2978ZM10.5 22.0851H9.5V27.9755H10.5H11.5V22.0851H10.5ZM10.5731 20.9283L9.60691 20.6704C9.4921 21.1006 9.5 21.55 9.5 22.0851H10.5H11.5C11.5 21.4432 11.5079 21.3037 11.5393 21.1862L10.5731 20.9283ZM10.8889 20.2484L10.0671 19.6786C9.85881 19.9791 9.70206 20.3139 9.60691 20.6704L10.5731 20.9283L11.5393 21.1862C11.5737 21.0573 11.6312 20.9328 11.7107 20.8182L10.8889 20.2484ZM11.7294 19.4324L11.0788 18.673C10.6651 19.0274 10.3198 19.3141 10.0671 19.6786L10.8889 20.2484L11.7107 20.8182C11.7828 20.7143 11.8888 20.6126 12.38 20.1919L11.7294 19.4324ZM17.1312 14.8049L16.4806 14.0455L11.0788 18.673L11.7294 19.4324L12.38 20.1919L17.7817 15.5643L17.1312 14.8049ZM18.8615 13.5904L18.5834 12.6299C18.1907 12.7436 17.8601 12.9405 17.543 13.1726C17.2363 13.3972 16.8883 13.6961 16.4806 14.0455L17.1312 14.8049L17.7817 15.5643C18.2126 15.1952 18.4937 14.9553 18.7244 14.7864C18.9447 14.6251 19.06 14.574 19.1396 14.551L18.8615 13.5904ZM20.1383 13.5904L20.4164 12.6299C19.8183 12.4567 19.1815 12.4567 18.5834 12.6299L18.8615 13.5904L19.1396 14.551C19.3744 14.483 19.6254 14.483 19.8602 14.551L20.1383 13.5904ZM21.8708 14.8064L22.5214 14.047C22.113 13.6971 21.7646 13.3978 21.4575 13.173C21.14 12.9406 20.8092 12.7436 20.4164 12.6299L20.1383 13.5904L19.8602 14.551C19.94 14.5741 20.0555 14.6253 20.2762 14.7868C20.5072 14.9559 20.7888 15.1962 21.2203 15.5659L21.8708 14.8064ZM27.2709 19.4324L27.9214 18.673L22.5214 14.047L21.8708 14.8064L21.2203 15.5659L26.6203 20.1919L27.2709 19.4324ZM28.1114 20.2484L28.9332 19.6786C28.6804 19.3141 28.335 19.0273 27.9214 18.673L27.2709 19.4324L26.6203 20.1919C27.1115 20.6127 27.2176 20.7143 27.2896 20.8182L28.1114 20.2484ZM28.4264 20.9283L29.3926 20.6704C29.2979 20.3159 29.1426 19.9807 28.9332 19.6786L28.1114 20.2484L27.2896 20.8182C27.3679 20.9312 27.4253 21.0553 27.4602 21.1862L28.4264 20.9283ZM28.5 22.0851H29.5C29.5 21.5484 29.5073 21.1002 29.3926 20.6704L28.4264 20.9283L27.4602 21.1862C27.4917 21.3041 27.5 21.4447 27.5 22.0851H28.5ZM28.5 27.9794H29.5V22.0851H28.5H27.5V27.9794H28.5ZM28.255 30.2978L29.1421 30.7594C29.3511 30.3577 29.43 29.9373 29.4659 29.507C29.5008 29.0889 29.5 28.5782 29.5 27.9794H28.5H27.5C27.5 28.6119 27.4992 29.025 27.4728 29.3406C27.4475 29.6439 27.4039 29.767 27.3679 29.8361L28.255 30.2978ZM27.2708 31.2601L27.7172 32.155C28.3258 31.8514 28.827 31.3648 29.1421 30.7594L28.255 30.2978L27.3679 29.8361C27.2516 30.0597 27.0626 30.2465 26.8244 30.3653L27.2708 31.2601ZM24.9035 31.5V32.5C25.5161 32.5 26.0346 32.5007 26.4583 32.4668C26.8931 32.432 27.3143 32.356 27.7172 32.155L27.2708 31.2601L26.8244 30.3653C26.7465 30.4042 26.6129 30.4481 26.2987 30.4732C25.9733 30.4993 25.5485 30.5 24.9035 30.5V31.5ZM22.5 31.5V32.5H24.9035V31.5V30.5H22.5V31.5ZM22.5 27.5H21.5V31.5H22.5H23.5V27.5H22.5ZM19.5 24.5V25.5C20.6046 25.5 21.5 26.3954 21.5 27.5H22.5H23.5C23.5 25.2909 21.7091 23.5 19.5 23.5V24.5ZM16.5 27.5H17.5C17.5 26.3954 18.3954 25.5 19.5 25.5V24.5V23.5C17.2909 23.5 15.5 25.2909 15.5 27.5H16.5ZM16.5 31.5H17.5V27.5H16.5H15.5V31.5H16.5ZM14.0965 31.5V32.5H16.5V31.5V30.5H14.0965V31.5ZM11.7283 31.2601L11.2819 32.155C11.6849 32.356 12.1064 32.432 12.5413 32.4668C12.9652 32.5007 13.4838 32.5 14.0965 32.5V31.5V30.5C13.4515 30.5 13.0265 30.4993 12.7008 30.4732C12.3862 30.448 12.2525 30.4041 12.1747 30.3653L11.7283 31.2601ZM10.7452 30.2978L9.85817 30.7594C10.1727 31.3638 10.6722 31.8508 11.2819 32.155L11.7283 31.2601L12.1747 30.3653C11.9376 30.2471 11.7492 30.0607 11.6323 29.8361L10.7452 30.2978ZM10.5 27.9755H9.5C9.5 28.5755 9.49919 29.0871 9.53412 29.5057C9.57007 29.9366 9.64897 30.3574 9.85817 30.7594L10.7452 30.2978L11.6323 29.8361C11.5963 29.7669 11.5526 29.6434 11.5272 29.3394C11.5008 29.0232 11.5 28.6092 11.5 27.9755H10.5Z" fill="#C7C7CC"/>
</g>
<defs>
<clipPath id="clip0_145_357">
<rect width="24" height="24" fill="white" transform="translate(8 10)"/>
</clipPath>
</defs>
</svg>
