<svg width="40" height="44" viewBox="0 0 40 44" fill="none" xmlns="http://www.w3.org/2000/svg">
<path d="M27.5 23.2476H21.25V29.4976C21.25 29.8291 21.1183 30.147 20.8839 30.3814C20.6495 30.6159 20.3315 30.7476 20 30.7476C19.6685 30.7476 19.3505 30.6159 19.1161 30.3814C18.8817 30.147 18.75 29.8291 18.75 29.4976V23.2476H12.5C12.1685 23.2476 11.8505 23.1159 11.6161 22.8814C11.3817 22.647 11.25 22.3291 11.25 21.9976C11.25 21.666 11.3817 21.3481 11.6161 21.1137C11.8505 20.8793 12.1685 20.7476 12.5 20.7476H18.75V14.4976C18.75 14.166 18.8817 13.8481 19.1161 13.6137C19.3505 13.3793 19.6685 13.2476 20 13.2476C20.3315 13.2476 20.6495 13.3793 20.8839 13.6137C21.1183 13.8481 21.25 14.166 21.25 14.4976V20.7476H27.5C27.8315 20.7476 28.1495 20.8793 28.3839 21.1137C28.6183 21.3481 28.75 21.666 28.75 21.9976C28.75 22.3291 28.6183 22.647 28.3839 22.8814C28.1495 23.1159 27.8315 23.2476 27.5 23.2476Z" fill="#C7C7CC"/>
</svg>
