<svg width="40" height="44" viewBox="0 0 40 44" fill="none" xmlns="http://www.w3.org/2000/svg">
<path d="M20 22C18.625 22 17.4479 21.5104 16.4687 20.5312C15.4896 19.5521 15 18.375 15 17C15 15.625 15.4896 14.4479 16.4687 13.4688C17.4479 12.4896 18.625 12 20 12C21.375 12 22.5521 12.4896 23.5312 13.4688C24.5104 14.4479 25 15.625 25 17C25 18.375 24.5104 19.5521 23.5312 20.5312C22.5521 21.5104 21.375 22 20 22ZM10 29.5V28.5C10 27.7917 10.1825 27.1408 10.5475 26.5475C10.9125 25.9542 11.3967 25.5008 12 25.1875C13.2917 24.5417 14.6042 24.0575 15.9375 23.735C17.2708 23.4125 18.625 23.2508 20 23.25C21.375 23.2492 22.7292 23.4108 24.0625 23.735C25.3958 24.0592 26.7083 24.5433 28 25.1875C28.6042 25.5 29.0887 25.9533 29.4537 26.5475C29.8187 27.1417 30.0008 27.7925 30 28.5V29.5C30 30.1875 29.7554 30.7762 29.2662 31.2662C28.7771 31.7562 28.1883 32.0008 27.5 32H12.5C11.8125 32 11.2242 31.7554 10.735 31.2662C10.2458 30.7771 10.0008 30.1883 10 29.5Z" fill="#C7C7CC"/>
</svg>
