<svg width="40" height="44" viewBox="0 0 40 44" fill="none" xmlns="http://www.w3.org/2000/svg">
<path d="M29.7061 16.259H25.3781V12.212C26.3824 12.4666 27.3059 12.9713 28.0626 13.6789C28.8194 14.3865 29.3848 15.2741 29.7061 16.259ZM14.6501 12.212V16.259H10.2751C10.5999 15.268 11.1721 14.3762 11.9377 13.668C12.7033 12.9599 13.6369 12.4587 14.6501 12.212ZM23.6131 12H16.4151V16.259H23.6131V12ZM30.0001 18.024H10.0041C9.99862 18.0745 9.99862 18.1255 10.0041 18.176V25.823C10.0041 27.4569 10.6515 29.0243 11.8045 30.182C12.9575 31.3397 14.5222 31.9934 16.1561 32H23.8011C25.4385 31.9974 27.008 31.3457 28.1657 30.1878C29.3233 29.0299 29.9748 27.4603 29.9771 25.823V18.176C29.9904 18.1263 29.9981 18.0754 30.0001 18.024ZM23.6721 25.164C23.5797 25.3381 23.4516 25.4908 23.2961 25.612L19.7661 28.082C19.579 28.2127 19.3599 28.2901 19.1321 28.306H19.0141C18.8069 28.3091 18.602 28.2614 18.4174 28.1671C18.2328 28.0728 18.0741 27.9348 17.9551 27.765C17.8251 27.57 17.7551 27.34 17.7551 27.105V22.495C17.7541 22.265 17.8191 22.04 17.9441 21.847C18.0741 21.67 18.2431 21.525 18.4381 21.424C18.6381 21.334 18.8541 21.289 19.0731 21.294C19.2841 21.304 19.4901 21.364 19.6731 21.471L23.2001 23.6C23.3728 23.6997 23.5173 23.8415 23.6203 24.0122C23.7233 24.1828 23.7814 24.3768 23.7891 24.576C23.8051 24.78 23.7641 24.983 23.6711 25.165" fill="#48494A"/>
</svg>
